<svg width="50" height="50" viewBox="0 0 50 50" fill="none" xmlns="http://www.w3.org/2000/svg">
<rect width="50" height="50" fill="#7C3AED"/>
<path d="M26.3125 10.895C28.0625 9.635 30.0925 9.005 32.385 9.005C33.645 9.005 35.0275 9.3375 36.5325 10.0375C38.0375 10.72 39.2275 11.525 40.1025 12.4525C41.905 14.6925 42.6575 17.3 42.395 20.275C42.115 23.25 41.135 25.5775 39.4375 27.2225L26.155 40.505C25.8225 40.8375 25.4025 40.995 24.9125 40.995C24.4225 40.995 24.02 40.8375 23.6875 40.505C23.5257 40.3457 23.3986 40.1546 23.3143 39.9438C23.23 39.733 23.1902 39.507 23.1975 39.28C23.1975 38.79 23.355 38.37 23.6875 38.0375L31.72 30.005C32.1575 29.62 32.1575 29.2175 31.72 28.78C31.2825 28.3425 30.88 28.3425 30.495 28.78L22.4625 36.8125C22.3005 36.9756 22.1065 37.1034 21.8926 37.1878C21.6788 37.2721 21.4497 37.3112 21.22 37.3025C20.73 37.3025 20.3275 37.145 19.995 36.8125C19.8332 36.6532 19.7061 36.4621 19.6218 36.2513C19.5375 36.0405 19.4977 35.8145 19.505 35.5875C19.505 35.0975 19.6625 34.6775 19.995 34.345L28.0275 26.3125C28.5 25.875 28.5 25.4375 28.0275 25C27.625 24.5625 27.24 24.5625 26.8025 25L18.77 33.12C18.6062 33.2806 18.4118 33.4068 18.1984 33.4909C17.985 33.5751 17.7569 33.6156 17.5275 33.61C17.0375 33.61 16.6175 33.4525 16.25 33.12C15.9 32.7875 15.725 32.385 15.725 31.895C15.725 31.405 15.9175 30.9675 16.3025 30.5825L24.3525 22.5325C24.79 22.095 24.79 21.6925 24.3525 21.3075C23.915 20.9225 23.495 20.9225 23.11 21.3075L14.99 29.375C14.605 29.725 14.2025 29.9175 13.765 29.9175C13.275 29.9175 12.855 29.7425 12.54 29.375C12.2075 29.025 12.0325 28.605 12.0325 28.115C12.0325 27.625 12.2075 27.2225 12.54 26.89C17.895 21.5 21.2025 18.245 22.4625 17.0375L28.6925 23.1975C29.375 23.845 30.1625 24.1775 31.125 24.1775C32.35 24.1775 33.3125 23.6875 34.03 22.7075C34.52 21.99 34.695 21.2025 34.555 20.3275C34.415 19.4525 34.0475 18.7175 33.4525 18.105L26.3125 10.895ZM29.9175 21.9725L22.4625 14.5L10.0725 26.89C8.6025 25.4025 7.7625 23.1275 7.57 20.03C7.3775 16.95 8.2175 14.2725 10.0725 12.0325C12.155 9.9675 14.64 8.9175 17.5275 8.9175C20.4325 8.9175 22.9 9.9675 24.9125 12.0325L32.385 19.505C32.7175 19.8375 32.875 20.24 32.875 20.73C32.875 21.22 32.7175 21.64 32.385 21.9725C32.0525 22.2875 31.65 22.4625 31.125 22.4625C30.6525 22.4625 30.25 22.2875 29.9175 21.9725Z" fill="#E6E6E6"/>
</svg>
