<svg width="50" height="50" viewBox="0 0 50 50" fill="none" xmlns="http://www.w3.org/2000/svg">
<rect width="50" height="50" fill="#22C55E"/>
<path d="M25 20.4341C24.611 19.7134 24.1724 19.0205 23.6875 18.3604V13.1875C23.6875 12.8394 23.8258 12.5056 24.0719 12.2594C24.3181 12.0133 24.6519 11.875 25 11.875C25.3481 11.875 25.6819 12.0133 25.9281 12.2594C26.1742 12.5056 26.3125 12.8394 26.3125 13.1875V18.3604C25.8276 19.0205 25.389 19.7134 25 20.4341ZM42.1773 12.2819C41.5703 11.4977 40.3956 10.5625 38.2891 10.5625C35.5246 10.5625 31.9792 12.4131 28.8046 15.5106C27.8969 16.3904 27.0634 17.3435 26.3125 18.3604V33.5312C26.3125 33.8793 26.1742 34.2132 25.9281 34.4593C25.6819 34.7055 25.3481 34.8437 25 34.8437C24.6519 34.8437 24.3181 34.7055 24.0719 34.4593C23.8258 34.2132 23.6875 33.8793 23.6875 33.5312V18.3604C22.9387 17.3438 22.1074 16.3906 21.202 15.5106C18.0257 12.4131 14.4803 10.5625 11.7109 10.5625C9.60437 10.5625 8.42969 11.4977 7.82265 12.2819C6.70375 13.7207 5.82437 16.2325 7.7882 23.9631C8.78078 27.8727 10.9891 29.3772 12.8134 29.9383C11.8185 31.5538 11.4996 33.496 11.9257 35.3449C12.3518 37.1937 13.4887 38.8004 15.0903 39.8175C16.6919 40.8346 18.6296 41.1803 20.4841 40.7797C22.3386 40.3791 23.9609 39.2646 25 37.6771C26.0391 39.2646 27.6613 40.3791 29.5159 40.7797C31.3704 41.1803 33.3081 40.8346 34.9097 39.8175C36.5113 38.8004 37.6482 37.1937 38.0743 35.3449C38.5004 33.496 38.1815 31.5538 37.1866 29.9383C39.0109 29.3805 41.2176 27.8727 42.2118 23.9631C43.3143 19.6253 44.1707 14.8445 42.1773 12.2819Z" fill="#E6E6E6"/>
</svg>
