<svg width="50" height="50" viewBox="0 0 50 50" fill="none" xmlns="http://www.w3.org/2000/svg">
<rect width="50" height="50" fill="#EA580C"/>
<path d="M14.5 33.2171C14.3055 32.8567 14.0862 32.5102 13.8437 32.1802V29.5937C13.8437 29.4197 13.9129 29.2528 14.036 29.1297C14.159 29.0066 14.3259 28.9375 14.5 28.9375C14.674 28.9375 14.841 29.0066 14.964 29.1297C15.0871 29.2528 15.1562 29.4197 15.1562 29.5937V32.1802C14.9138 32.5102 14.6945 32.8567 14.5 33.2171ZM23.0887 29.1409C22.7852 28.7488 22.1978 28.2812 21.1445 28.2812C19.7623 28.2812 17.9896 29.2066 16.4023 30.7553C15.9485 31.1952 15.5317 31.6718 15.1562 32.1802V39.7656C15.1562 39.9397 15.0871 40.1066 14.964 40.2297C14.841 40.3527 14.674 40.4219 14.5 40.4219C14.3259 40.4219 14.159 40.3527 14.036 40.2297C13.9129 40.1066 13.8437 39.9397 13.8437 39.7656V32.1802C13.4694 31.6719 13.0537 31.1953 12.601 30.7553C11.0128 29.2066 9.24015 28.2812 7.85547 28.2812C6.80219 28.2812 6.21484 28.7488 5.91133 29.1409C5.35187 29.8604 4.91219 31.1162 5.8941 34.9816C6.39039 36.9364 7.49453 37.6886 8.40672 37.9691C7.90927 38.7769 7.74982 39.748 7.96287 40.6724C8.17592 41.5968 8.74433 42.4002 9.54515 42.9088C10.346 43.4173 11.3148 43.5901 12.2421 43.3898C13.1693 43.1896 13.9805 42.6323 14.5 41.8386C15.0195 42.6323 15.8307 43.1896 16.7579 43.3898C17.6852 43.5901 18.654 43.4173 19.4548 42.9088C20.2557 42.4002 20.8241 41.5968 21.0371 40.6724C21.2502 39.748 21.0907 38.7769 20.5933 37.9691C21.5055 37.6902 22.6088 36.9364 23.1059 34.9816C23.6571 32.8127 24.0853 30.4223 23.0887 29.1409Z" fill="#E6E6E6"/>
<path d="M35.5 33.2171C35.3055 32.8567 35.0862 32.5102 34.8437 32.1802V29.5937C34.8437 29.4197 34.9129 29.2528 35.036 29.1297C35.159 29.0066 35.3259 28.9375 35.5 28.9375C35.674 28.9375 35.841 29.0066 35.964 29.1297C36.0871 29.2528 36.1562 29.4197 36.1562 29.5937V32.1802C35.9138 32.5102 35.6945 32.8567 35.5 33.2171ZM44.0887 29.1409C43.7852 28.7488 43.1978 28.2812 42.1445 28.2812C40.7623 28.2812 38.9896 29.2066 37.4023 30.7553C36.9485 31.1952 36.5317 31.6718 36.1562 32.1802V39.7656C36.1562 39.9397 36.0871 40.1066 35.964 40.2297C35.841 40.3527 35.674 40.4219 35.5 40.4219C35.3259 40.4219 35.159 40.3527 35.036 40.2297C34.9129 40.1066 34.8437 39.9397 34.8437 39.7656V32.1802C34.4694 31.6719 34.0537 31.1953 33.601 30.7553C32.0128 29.2066 30.2402 28.2812 28.8555 28.2812C27.8022 28.2812 27.2148 28.7488 26.9113 29.1409C26.3519 29.8604 25.9122 31.1162 26.8941 34.9816C27.3904 36.9364 28.4945 37.6886 29.4067 37.9691C28.9093 38.7769 28.7498 39.748 28.9629 40.6724C29.1759 41.5968 29.7443 42.4002 30.5451 42.9088C31.346 43.4173 32.3148 43.5901 33.2421 43.3898C34.1693 43.1896 34.9805 42.6323 35.5 41.8386C36.0195 42.6323 36.8307 43.1896 37.7579 43.3898C38.6852 43.5901 39.654 43.4173 40.4548 42.9088C41.2557 42.4002 41.8241 41.5968 42.0371 40.6724C42.2502 39.748 42.0907 38.7769 41.5933 37.9691C42.5055 37.6902 43.6088 36.9364 44.1059 34.9816C44.6571 32.8127 45.0853 30.4223 44.0887 29.1409Z" fill="#E6E6E6"/>
<path d="M25.5 12.2171C25.3055 11.8567 25.0862 11.5102 24.8437 11.1802V8.59375C24.8437 8.4197 24.9129 8.25278 25.036 8.12971C25.159 8.00664 25.3259 7.9375 25.5 7.9375C25.674 7.9375 25.841 8.00664 25.964 8.12971C26.0871 8.25278 26.1562 8.4197 26.1562 8.59375V11.1802C25.9138 11.5102 25.6945 11.8567 25.5 12.2171ZM34.0887 8.14094C33.7852 7.74883 33.1978 7.28125 32.1445 7.28125C30.7623 7.28125 28.9896 8.20656 27.4023 9.75531C26.9485 10.1952 26.5317 10.6718 26.1562 11.1802V18.7656C26.1562 18.9397 26.0871 19.1066 25.964 19.2297C25.841 19.3527 25.674 19.4219 25.5 19.4219C25.3259 19.4219 25.159 19.3527 25.036 19.2297C24.9129 19.1066 24.8437 18.9397 24.8437 18.7656V11.1802C24.4694 10.6719 24.0537 10.1953 23.601 9.75531C22.0128 8.20656 20.2402 7.28125 18.8555 7.28125C17.8022 7.28125 17.2148 7.74883 16.9113 8.14094C16.3519 8.86035 15.9122 10.1162 16.8941 13.9816C17.3904 15.9364 18.4945 16.6886 19.4067 16.9691C18.9093 17.7769 18.7498 18.748 18.9629 19.6724C19.1759 20.5968 19.7443 21.4002 20.5451 21.9088C21.346 22.4173 22.3148 22.5901 23.2421 22.3898C24.1693 22.1896 24.9805 21.6323 25.5 20.8386C26.0195 21.6323 26.8307 22.1896 27.7579 22.3898C28.6852 22.5901 29.654 22.4173 30.4548 21.9088C31.2557 21.4002 31.8241 20.5968 32.0371 19.6724C32.2502 18.748 32.0907 17.7769 31.5933 16.9691C32.5055 16.6902 33.6088 15.9364 34.1059 13.9816C34.6571 11.8127 35.0853 9.42227 34.0887 8.14094Z" fill="#E6E6E6"/>
</svg>
