<svg width="50" height="50" viewBox="0 0 50 50" fill="none" xmlns="http://www.w3.org/2000/svg">
<rect width="50" height="50" fill="#7C3AED"/>
<path d="M14.5 23.2171C14.3055 22.8567 14.0862 22.5102 13.8438 22.1802V19.5937C13.8438 19.4197 13.9129 19.2528 14.036 19.1297C14.159 19.0066 14.326 18.9375 14.5 18.9375C14.674 18.9375 14.841 19.0066 14.964 19.1297C15.0871 19.2528 15.1562 19.4197 15.1562 19.5937V22.1802C14.9138 22.5102 14.6945 22.8567 14.5 23.2171ZM23.0887 19.1409C22.7852 18.7488 22.1978 18.2812 21.1445 18.2812C19.7623 18.2812 17.9896 19.2066 16.4023 20.7553C15.9485 21.1952 15.5317 21.6718 15.1562 22.1802V29.7656C15.1562 29.9397 15.0871 30.1066 14.964 30.2297C14.841 30.3527 14.674 30.4219 14.5 30.4219C14.326 30.4219 14.159 30.3527 14.036 30.2297C13.9129 30.1066 13.8438 29.9397 13.8438 29.7656V22.1802C13.4694 21.6719 13.0537 21.1953 12.601 20.7553C11.0129 19.2066 9.24016 18.2812 7.85547 18.2812C6.80219 18.2812 6.21484 18.7488 5.91133 19.1409C5.35188 19.8604 4.91219 21.1162 5.8941 24.9816C6.39039 26.9364 7.49453 27.6886 8.40672 27.9691C7.90927 28.7769 7.74982 29.748 7.96287 30.6724C8.17592 31.5968 8.74433 32.4002 9.54515 32.9088C10.346 33.4173 11.3148 33.5901 12.2421 33.3898C13.1693 33.1896 13.9805 32.6323 14.5 31.8386C15.0195 32.6323 15.8307 33.1896 16.7579 33.3898C17.6852 33.5901 18.654 33.4173 19.4548 32.9088C20.2557 32.4002 20.8241 31.5968 21.0371 30.6724C21.2502 29.748 21.0907 28.7769 20.5933 27.9691C21.5055 27.6902 22.6088 26.9364 23.1059 24.9816C23.6571 22.8127 24.0854 20.4223 23.0887 19.1409Z" fill="#E6E6E6"/>
<path d="M35.5 23.2171C35.3055 22.8567 35.0862 22.5102 34.8437 22.1802V19.5937C34.8437 19.4197 34.9129 19.2528 35.036 19.1297C35.159 19.0066 35.326 18.9375 35.5 18.9375C35.674 18.9375 35.841 19.0066 35.964 19.1297C36.0871 19.2528 36.1562 19.4197 36.1562 19.5937V22.1802C35.9138 22.5102 35.6945 22.8567 35.5 23.2171ZM44.0887 19.1409C43.7852 18.7488 43.1978 18.2812 42.1445 18.2812C40.7623 18.2812 38.9896 19.2066 37.4023 20.7553C36.9485 21.1952 36.5317 21.6718 36.1562 22.1802V29.7656C36.1562 29.9397 36.0871 30.1066 35.964 30.2297C35.841 30.3527 35.674 30.4219 35.5 30.4219C35.326 30.4219 35.159 30.3527 35.036 30.2297C34.9129 30.1066 34.8437 29.9397 34.8437 29.7656V22.1802C34.4694 21.6719 34.0537 21.1953 33.601 20.7553C32.0129 19.2066 30.2402 18.2812 28.8555 18.2812C27.8022 18.2812 27.2148 18.7488 26.9113 19.1409C26.3519 19.8604 25.9122 21.1162 26.8941 24.9816C27.3904 26.9364 28.4945 27.6886 29.4067 27.9691C28.9093 28.7769 28.7498 29.748 28.9629 30.6724C29.1759 31.5968 29.7443 32.4002 30.5452 32.9088C31.346 33.4173 32.3148 33.5901 33.2421 33.3898C34.1693 33.1896 34.9805 32.6323 35.5 31.8386C36.0195 32.6323 36.8307 33.1896 37.7579 33.3898C38.6852 33.5901 39.654 33.4173 40.4548 32.9088C41.2557 32.4002 41.8241 31.5968 42.0371 30.6724C42.2502 29.748 42.0907 28.7769 41.5933 27.9691C42.5055 27.6902 43.6088 26.9364 44.1059 24.9816C44.6571 22.8127 45.0853 20.4223 44.0887 19.1409Z" fill="#E6E6E6"/>
</svg>
