<svg width="50" height="50" viewBox="0 0 50 50" fill="none" xmlns="http://www.w3.org/2000/svg">
<rect width="50" height="50" fill="#EA580C"/>
<path d="M30.25 11.6002C30.25 13.5637 27.842 17.055 26.288 19.1042C26.1389 19.3055 25.9447 19.469 25.7211 19.5816C25.4974 19.6943 25.2504 19.753 25 19.753C24.7496 19.753 24.5026 19.6943 24.2789 19.5816C24.0553 19.469 23.8611 19.3055 23.712 19.1042C22.9277 18.0724 22.1896 17.0062 21.5 15.9087C20.5375 14.3425 19.75 12.7238 19.75 11.6002C19.75 8.7005 22.1003 5.75 25 5.75C27.8997 5.75 30.25 8.7005 30.25 11.6002ZM23.4757 13.1368C23.9196 13.4566 24.4529 13.6287 25 13.6287C25.5471 13.6287 26.0804 13.4566 26.5243 13.1368C26.9772 12.8137 27.3157 12.3551 27.4911 11.8272C27.6665 11.2993 27.6696 10.7292 27.5001 10.1994C27.3305 9.66958 26.9969 9.20733 26.5476 8.87935C26.0982 8.55137 25.5563 8.37463 25 8.37463C24.4437 8.37463 23.9018 8.55137 23.4524 8.87935C23.0031 9.20733 22.6695 9.66958 22.4999 10.1994C22.3304 10.7292 22.3335 11.2993 22.5089 11.8272C22.6843 12.3551 23.0228 12.8137 23.4757 13.1368ZM14.6365 24.6903L21.0765 18.455C20.5657 17.7222 20.0846 16.9691 19.6345 16.1975L9.2325 26.2688C8.68456 26.799 8.24883 27.4339 7.9512 28.1359C7.65358 28.8379 7.50013 29.5925 7.5 30.355V36.8125C7.5 37.8568 7.91484 38.8583 8.65327 39.5967C9.39169 40.3352 10.3932 40.75 11.4375 40.75H38.5625C39.6068 40.75 40.6083 40.3352 41.3467 39.5967C42.0852 38.8583 42.5 37.8568 42.5 36.8125V30.355C42.5001 29.5922 42.3468 28.8373 42.0491 28.135C41.7515 27.4327 41.3156 26.7974 40.7675 26.267L30.3655 16.1993C29.9147 16.9703 29.4331 17.7228 28.9218 18.455L32.5653 21.9812C31.3633 22.1352 30.1793 22.4066 29.0303 22.7915C27.8368 23.1817 26.6082 23.6858 25.4602 24.16C24.7812 24.4383 24.1302 24.706 23.5335 24.93C21.8132 25.5775 20.247 26.0028 18.665 25.9503C17.4225 25.9065 16.0977 25.5653 14.6365 24.6903Z" fill="#E6E6E6"/>
</svg>
