<svg width="50" height="50" viewBox="0 0 50 50" fill="none" xmlns="http://www.w3.org/2000/svg">
<rect width="50" height="50" fill="#22C55E"/>
<path d="M16.7663 33.75C10.1775 16.6875 19.5103 9.1415 25 7.5C30.4898 9.1415 39.8225 16.6875 33.2338 33.75C32.2398 33.204 29.2 32.1102 25 32.1102C20.8 32.1102 17.7603 33.204 16.7663 33.75Z" stroke="#E6E6E6" stroke-width="1.5" stroke-linecap="round" stroke-linejoin="round"/>
<path d="M34.625 31.2265C37.1485 31.4592 40.239 32.1435 42.4668 33.75C42.4668 33.75 43.382 25.112 35.5 23.25M15.375 31.2265C12.8515 31.4592 9.761 32.1435 7.53325 33.75C7.53325 33.75 6.618 25.112 14.5 23.25M20.625 37.25C20.625 37.25 21.3548 41.625 25 42.5C28.6453 41.625 29.375 37.25 29.375 37.25M28.5 19.75C28.5 18.8217 28.1313 17.9315 27.4749 17.2751C26.8185 16.6187 25.9283 16.25 25 16.25C24.0717 16.25 23.1815 16.6187 22.5251 17.2751C21.8688 17.9315 21.5 18.8217 21.5 19.75C21.5 20.6783 21.8688 21.5685 22.5251 22.2249C23.1815 22.8813 24.0717 23.25 25 23.25C25.9283 23.25 26.8185 22.8813 27.4749 22.2249C28.1313 21.5685 28.5 20.6783 28.5 19.75Z" stroke="#E6E6E6" stroke-width="1.5" stroke-linecap="round" stroke-linejoin="round"/>
</svg>
