<svg width="50" height="50" viewBox="0 0 50 50" fill="none" xmlns="http://www.w3.org/2000/svg">
<rect width="50" height="50" fill="#7C3AED"/>
<g clip-path="url(#clip0_1_38)">
<path fill-rule="evenodd" clip-rule="evenodd" d="M44.6123 19.5068L43.9472 18.3168C43.583 17.7235 43.1344 17.1865 42.6155 16.7225C41.863 15.9525 41.2855 16.53 37.3602 18.875C37.1257 18.9473 36.8866 19.0004 36.6427 19.0343L36.9927 17.9318C37.7277 15.5658 35.2427 11.3973 34.8735 11.2223C33.9285 10.7498 32.9817 11.9398 32.1242 12.6748C27.919 16.285 26.7465 13.0615 27.2715 7.66625C27.2715 6.94875 27.814 5.91625 27.499 5.02375C26.869 3.27025 24.6622 4.112 23.173 5.02375C22.193 5.61875 21.2474 6.26625 20.3362 6.96625C18.2114 8.52191 16.4977 10.572 15.3435 12.939C12.5242 18.9643 14.8535 25.1995 11.1925 22.7303C10.0084 21.7153 8.76861 20.7671 7.479 19.89C5.554 18.9975 4.69475 20.9068 4.34475 23.0085C4.0048 25.3291 3.95777 27.6832 4.20475 30.0155C5.20203 34.7795 7.88914 39.0218 11.77 41.9593C13.9732 43.4042 16.4175 44.4426 18.987 45.0253C20.737 45.4803 25.1347 46.7752 24.6097 45.3402C24.4347 44.8853 16.0802 43.9228 12.5592 40.9967C9.02615 38.2169 6.60306 34.2657 5.72725 29.8563C5.47328 27.22 5.67455 24.5598 6.32225 21.9918C6.51475 21.4318 6.32225 21.0118 7.6015 21.9918C9.65075 23.6385 12.0692 26.3545 14.0835 24.6203C17.0602 22.0618 13.471 14.6365 21.5787 8.57625C22.7604 7.52407 24.1181 6.68822 25.5897 6.107C23.9972 13.8473 27.3415 19.47 33.4017 14.164C33.4017 14.164 33.8217 13.919 34.1542 13.709C34.9585 14.7709 35.3396 16.0937 35.2235 17.4208L34.5235 19.435C34.5235 19.435 34.2785 19.9775 34.2435 20.17C34.0335 21.0468 34.8385 21.5893 35.836 21.3793C37.8201 20.6768 39.6953 19.6983 41.4062 18.4725C41.7912 18.2275 41.4062 17.8775 42.4912 19.155C44.2454 22.7881 44.8568 26.8678 44.2447 30.8555C43.7973 34.4856 42.1941 37.8754 39.672 40.5243C38.1648 41.92 36.3723 42.9715 34.4185 43.606C29.3382 45.3577 27.709 44.131 27.709 45.3577C27.709 45.5156 27.7717 45.6669 27.8833 45.7785C27.9949 45.8901 28.1462 45.9528 28.304 45.9528C32.784 45.9545 37.124 44.3865 40.5662 41.5218C46.1348 36.004 47.204 26.792 44.6123 19.5068Z" fill="#E6E6E6"/>
<path fill-rule="evenodd" clip-rule="evenodd" d="M16.4302 35.9725C15.2227 36.8125 14.6785 36.375 13.6267 36.375C13.4719 36.3749 13.3232 36.4352 13.2121 36.543C13.101 36.6509 13.0363 36.7978 13.0317 36.9525C13.0317 37.81 14.2392 37.8625 15.081 37.8275C20.3362 37.6175 19.582 31.1373 14.591 31.7673L14.381 29.8948C14.381 29.2648 17.2177 29.0355 17.6027 28.983C17.7317 29.0066 17.8648 28.98 17.9749 28.9088C18.085 28.8375 18.1637 28.7269 18.1949 28.5996C18.2262 28.4723 18.2077 28.3378 18.1432 28.2237C18.0786 28.1096 17.973 28.0244 17.8477 27.9855C16.4632 27.7956 15.0533 27.9334 13.7317 28.388C13.3743 28.6067 13.0891 28.9258 12.9118 29.3054C12.7344 29.6851 12.6726 30.1085 12.7342 30.523V32.679C12.7342 33.4315 13.0667 34.009 13.8192 34.079C14.1867 34.079 13.9942 34.079 15.396 33.6765C17.1127 33.799 17.3402 35.3408 16.4285 35.9708" fill="#E6E6E6"/>
<path fill-rule="evenodd" clip-rule="evenodd" d="M22.8405 27.8963C21.556 28.5456 20.5411 29.6265 19.9741 30.9495C19.407 32.2724 19.324 33.7527 19.7395 35.1308C20.0357 35.957 20.5852 36.6687 21.3097 37.1644C22.0341 37.66 22.8965 37.9144 23.774 37.8911C24.6515 37.8678 25.4992 37.5681 26.1964 37.0348C26.8935 36.5014 27.4045 35.7616 27.6565 34.9208C29.3732 30.5423 25.5915 26.9163 22.8405 27.8963ZM26.029 34.2208C25.8696 34.6689 25.5944 35.0668 25.2314 35.3742C24.8684 35.6816 24.4305 35.8874 23.9622 35.9708C23.6438 36.0153 23.3197 35.9934 23.0101 35.9064C22.7006 35.8194 22.4125 35.6693 22.1639 35.4654C21.9153 35.2615 21.7116 35.0083 21.5657 34.7218C21.4199 34.4353 21.3349 34.1217 21.3162 33.8008C21.1463 32.8939 21.2467 31.9571 21.6048 31.1067C21.9629 30.2564 22.563 29.5301 23.3305 29.018C24.9947 28.318 27.6915 30.943 26.0272 34.2208M38.517 27.5463L37.257 28.5438C35.5032 29.857 33.9407 31.4077 32.6142 33.1515C32.8417 32.8715 30.0575 36.4625 30.8625 36.655C31.0818 36.6177 31.286 36.5418 31.475 36.4275C31.3525 36.5325 32.0175 35.99 34.9785 33.064C36.3785 31.664 39.812 27.8088 39.882 27.8088C39.952 27.8088 39.987 26.2688 38.517 27.5463ZM34.8735 34.8158C34.226 36.9683 37.5877 38.16 39.1995 36.0408C41.5812 32.9065 36.1702 30.5073 34.8735 34.8158ZM37.9745 35.0258C37.8148 35.2343 37.587 35.38 37.3308 35.4376C37.0746 35.4952 36.8063 35.4609 36.5728 35.3408C36.3102 35.2183 36.4153 34.9558 36.5728 34.7458C37.3428 33.0815 38.832 34.1158 37.9745 35.0258ZM30.25 28.178C29.6025 30.3305 32.9817 31.5398 34.576 29.4205C36.9577 26.2688 31.5625 23.8853 30.25 28.178ZM33.3492 28.388C33.1879 28.5937 32.9616 28.7385 32.7074 28.7989C32.4531 28.8593 32.1858 28.8317 31.9492 28.7205C31.6867 28.598 31.7917 28.3355 31.9492 28.108C32.7192 26.4613 34.2067 27.478 33.3492 28.388Z" fill="#E6E6E6"/>
</g>
<defs>
<clipPath id="clip0_1_38">
<rect width="42" height="42" fill="white" transform="translate(4 4)"/>
</clipPath>
</defs>
</svg>
